<svg width="48" height="48" viewBox="0 0 48 48" fill="none" xmlns="http://www.w3.org/2000/svg">
<path d="M34.8 25.8V22.2H42V25.8H34.8ZM36.96 38.4L31.2 34.08L33.36 31.2L39.12 35.52L36.96 38.4ZM33.36 16.8L31.2 13.92L36.96 9.59998L39.12 12.48L33.36 16.8ZM11.4 36.6V29.4H9.6C8.61 29.4 7.7625 29.0475 7.0575 28.3425C6.3525 27.6375 6 26.79 6 25.8V22.2C6 21.21 6.3525 20.3625 7.0575 19.6575C7.7625 18.9525 8.61 18.6 9.6 18.6H16.8L25.8 13.2V34.8L16.8 29.4H15V36.6H11.4ZM27.6 30.03V17.97C28.41 18.69 29.0625 19.5675 29.5575 20.6025C30.0525 21.6375 30.3 22.77 30.3 24C30.3 25.23 30.0525 26.3625 29.5575 27.3975C29.0625 28.4325 28.41 29.31 27.6 30.03Z" fill="white"/>
</svg>
