<svg width="48" height="48" viewBox="0 0 48 48" fill="none" xmlns="http://www.w3.org/2000/svg">
<path d="M6 42V38H38V42H6ZM14 34C11.8 34 9.91667 33.2167 8.35 31.65C6.78333 30.0833 6 28.2 6 26V6H38C39.1 6 40.0417 6.39167 40.825 7.175C41.6083 7.95833 42 8.9 42 10V16C42 17.1 41.6083 18.0417 40.825 18.825C40.0417 19.6083 39.1 20 38 20H34V26C34 28.2 33.2167 30.0833 31.65 31.65C30.0833 33.2167 28.2 34 26 34H14ZM14 30H26C27.1 30 28.0417 29.6083 28.825 28.825C29.6083 28.0417 30 27.1 30 26V10H10V26C10 27.1 10.3917 28.0417 11.175 28.825C11.9583 29.6083 12.9 30 14 30ZM34 16H38V10H34V16ZM14 30C12.9 30 11.9583 30 11.175 30C10.3917 30 10 30 10 30H30C30 30 29.6083 30 28.825 30C28.0417 30 27.1 30 26 30H14Z" fill="white"/>
</svg>
