<svg width="48" height="48" viewBox="0 0 48 48" fill="none" xmlns="http://www.w3.org/2000/svg">
<path d="M10.4999 42C9.5099 42 8.6624 41.6475 7.9574 40.9425C7.2524 40.2375 6.8999 39.39 6.8999 38.4V9.6C6.8999 8.61 7.2524 7.7625 7.9574 7.0575C8.6624 6.3525 9.5099 6 10.4999 6H24.8999L35.6999 16.8V22.2C35.0099 22.35 34.3649 22.59 33.7649 22.92C33.1649 23.25 32.6099 23.67 32.0999 24.18L21.2999 34.935V42H10.4999ZM24.8999 42V36.465L34.8449 26.565C35.1149 26.295 35.4149 26.1 35.7449 25.98C36.0749 25.86 36.4049 25.8 36.7349 25.8C37.0949 25.8 37.4399 25.8675 37.7699 26.0025C38.0999 26.1375 38.3999 26.34 38.6699 26.61L40.3349 28.275C40.5749 28.545 40.7624 28.845 40.8974 29.175C41.0324 29.505 41.0999 29.835 41.0999 30.165C41.0999 30.495 41.0399 30.8325 40.9199 31.1775C40.7999 31.5225 40.6049 31.83 40.3349 32.1L30.4349 42H24.8999ZM36.7349 31.92L38.3999 30.165L36.7349 28.5L35.0249 30.21L36.7349 31.92ZM23.0999 18.6H32.0999L23.0999 9.6V18.6Z" fill="white"/>
</svg>
