<svg width="48" height="48" viewBox="0 0 48 48" fill="none" xmlns="http://www.w3.org/2000/svg">
<path d="M24.8999 42V36.465L34.8449 26.565C35.1149 26.295 35.4149 26.1 35.7449 25.98C36.0749 25.86 36.4049 25.8 36.7349 25.8C37.0949 25.8 37.4399 25.8675 37.7699 26.0025C38.0999 26.1375 38.3999 26.34 38.6699 26.61L40.3349 28.275C40.5749 28.545 40.7624 28.845 40.8974 29.175C41.0324 29.505 41.0999 29.835 41.0999 30.165C41.0999 30.495 41.0399 30.8325 40.9199 31.1775C40.7999 31.5225 40.6049 31.83 40.3349 32.1L30.4349 42H24.8999ZM27.5999 39.3H29.3099L34.7549 33.81L33.9449 32.955L33.0899 32.145L27.5999 37.59V39.3ZM10.4999 42C9.5099 42 8.6624 41.6475 7.9574 40.9425C7.2524 40.2375 6.8999 39.39 6.8999 38.4V9.6C6.8999 8.61 7.2524 7.7625 7.9574 7.0575C8.6624 6.3525 9.5099 6 10.4999 6H24.8999L35.6999 16.8V22.2H32.0999V18.6H23.0999V9.6H10.4999V38.4H21.2999V42H10.4999ZM33.9449 32.955L33.0899 32.145L34.7549 33.81L33.9449 32.955Z" fill="white"/>
</svg>
