<svg width="48" height="48" viewBox="0 0 48 48" fill="none" xmlns="http://www.w3.org/2000/svg">
<path d="M15.5453 7.00129C19.428 6.95681 22.4404 8.06516 25.4093 10.4618V15.7828C25.3151 15.4855 25.1623 15.0924 25.0734 14.7802C24.8975 14.1822 24.6766 13.5984 24.4127 13.0337C23.3737 10.7824 21.4026 8.64421 19.0256 7.89692C13.3315 6.10689 8.21805 9.15771 6.35561 14.6252C4.03515 21.437 6.22871 30.156 13.4135 32.9094C16.2656 34.0024 18.9291 33.4968 21.5905 32.2512C23.707 31.1216 25.525 29.4325 26.6501 26.928C25.7382 30.3012 21.9172 33.1579 18.6493 33.8663C16.707 34.2873 14.6717 34.3194 12.7328 33.8982C12.2499 33.7933 11.6765 33.7169 11.2213 33.5333C10.4873 34.1751 7.82676 35.9102 5.97596 35.9102C7.47973 34.9848 7.83741 33.7583 8.00549 31.9434C7.53689 31.59 7.08611 31.2135 6.65479 30.8155C-0.405897 24.3862 1.76407 11.2424 10.8427 7.8984C12.4775 7.29627 13.8265 7.07212 15.5453 7.00129Z" fill="black"/>
<path d="M21.2885 16.9642L40.9174 16.9502C41.0959 18.7262 41.2568 20.5254 41.3725 22.2605C40.9174 20.4097 40.9498 19.888 39.8439 18.8391C38.3279 17.4008 36.3935 17.4156 34.4828 17.418L32.1749 17.4165C32.1053 19.3354 32.1927 21.6735 32.1908 23.6405L32.1831 37.513C32.1954 39.8664 32.6134 40.4797 34.8947 40.9998H26.5662C27.1956 40.8678 28.0981 40.7171 28.5579 40.2174C29.5391 39.1512 29.3488 37.0095 29.3563 35.6952C29.3698 34.0899 29.3729 32.4845 29.3655 30.8792L29.3667 17.4166L26.8713 17.4219C22.908 17.4431 21.2885 18.6746 20.0884 22.0292C20.0078 21.8661 20.6675 17.5999 20.7267 16.9767L21.2885 16.9642Z" fill="black"/>
<path d="M42.0664 7.4541C42.0664 7.4541 42.1662 9.30639 42.9253 10.0655C43.6844 10.8246 45.5367 10.9243 45.5367 10.9243C45.5367 10.9243 43.6844 11.0241 42.9253 11.7832C42.1662 12.5423 42.0664 14.3946 42.0664 14.3946C42.0664 14.3946 41.9667 12.5423 41.2076 11.7832C40.4485 11.0241 38.5962 10.9243 38.5962 10.9243C38.5962 10.9243 40.4485 10.8246 41.2076 10.0655C41.9667 9.30639 42.0664 7.4541 42.0664 7.4541Z" fill="black"/>
</svg>
